<svg xmlns="http://www.w3.org/2000/svg" width="13" height="17.999" viewBox="0 0 13 17.999"><defs><style>.a{fill:#333;}</style></defs><path class="a" d="M1245,31.416a3.815,3.815,0,0,0,.591,1.763,3.662,3.662,0,0,0,2.811,1.774v2.439a.644.644,0,0,0,1.286,0V34.382a.626.626,0,0,0-.643-.607,2.534,2.534,0,0,1-2.317-1.165,2.641,2.641,0,0,1-.444-1.263V26.359c0-.108,0-.395.528-.395s.528.287.528.395v2.094a.591.591,0,0,0,.2.439.663.663,0,0,0,.473.168,1.985,1.985,0,0,1,.849.254,3.916,3.916,0,0,1,1.7,2.252.652.652,0,0,0,.813.384.6.6,0,0,0,.407-.769,4.538,4.538,0,0,0-3.15-3.254V22.3c0-.132,0-.352.528-.352s.528.22.528.352v3.317a.644.644,0,0,0,1.286,0V21.566c0-.131,0-.351.528-.351s.528.22.528.351v4.055a.644.644,0,0,0,1.286,0V22.3c0-.132,0-.352.528-.352s.528.22.528.352v4.32a.644.644,0,0,0,1.286,0v-2.27c0-.108,0-.4.528-.4s.529.287.529.4v7.054a2.618,2.618,0,0,1-.636,1.779,2.346,2.346,0,0,1-1.724.589.626.626,0,0,0-.643.607v3.009a.644.644,0,0,0,1.286,0v-2.44a3.355,3.355,0,0,0,2.016-.93,3.774,3.774,0,0,0,.987-2.66V24.354a1.647,1.647,0,0,0-1.814-1.611,2.326,2.326,0,0,0-.528.059v-.5a1.612,1.612,0,0,0-1.814-1.567,2.373,2.373,0,0,0-.7.1,2.023,2.023,0,0,0-3.28,0,2.373,2.373,0,0,0-.7-.1,1.612,1.612,0,0,0-1.814,1.567v2.5a2.3,2.3,0,0,0-.528-.059,1.647,1.647,0,0,0-1.814,1.61S1245,30.1,1245,31.416Z" transform="translate(-1245 -20)"/></svg>