<svg xmlns="http://www.w3.org/2000/svg" width="18.547" height="18.58" viewBox="0 0 18.547 18.58"><defs><style>.a{fill:none;stroke:#333;stroke-linecap:round;stroke-linejoin:round;stroke-width:1.5px;}</style></defs><path class="a" d="M13.678,4.749a4.062,4.062,0,0,1,3.209,3.209M13.678,1.5a7.311,7.311,0,0,1,6.458,6.45m-.812,6.482v2.437a1.625,1.625,0,0,1-1.771,1.625A16.075,16.075,0,0,1,10.542,16a15.84,15.84,0,0,1-4.874-4.874A16.075,16.075,0,0,1,3.174,4.083,1.625,1.625,0,0,1,4.791,2.312H7.228a1.625,1.625,0,0,1,1.625,1.4,10.43,10.43,0,0,0,.569,2.283,1.625,1.625,0,0,1-.366,1.714L8.024,8.738A13,13,0,0,0,12.9,13.611l1.032-1.032a1.625,1.625,0,0,1,1.714-.366,10.43,10.43,0,0,0,2.283.569A1.625,1.625,0,0,1,19.323,14.432Z" transform="translate(-2.417 -0.672)"/></svg>