<svg xmlns="http://www.w3.org/2000/svg" width="29.337" height="29.469" viewBox="0 0 29.337 29.469"><defs><style>.a{fill:#fff;fill-rule:evenodd;}</style></defs><path class="a" d="M25.063,4.283A14.609,14.609,0,0,0,2.072,21.9L0,29.469l7.744-2.031a14.6,14.6,0,0,0,6.98,1.777h.006A14.608,14.608,0,0,0,25.063,4.283M14.73,26.75h0a12.125,12.125,0,0,1-6.179-1.692L8.1,24.795,3.507,26l1.227-4.479-.289-.459A12.142,12.142,0,1,1,14.73,26.75m6.66-9.09c-.365-.183-2.159-1.065-2.494-1.187s-.578-.183-.821.183-.943,1.187-1.156,1.431-.426.274-.791.091a9.969,9.969,0,0,1-2.935-1.811,11,11,0,0,1-2.03-2.528c-.213-.365-.023-.563.16-.745.164-.163.365-.426.547-.639a2.489,2.489,0,0,0,.365-.609.672.672,0,0,0-.03-.639c-.091-.183-.821-1.979-1.125-2.709-.3-.711-.6-.615-.821-.626s-.456-.013-.7-.013a1.341,1.341,0,0,0-.973.457,4.092,4.092,0,0,0-1.277,3.044A7.1,7.1,0,0,0,8.8,15.133a16.268,16.268,0,0,0,6.235,5.509,21.022,21.022,0,0,0,2.081.769,5.006,5.006,0,0,0,2.3.145,3.759,3.759,0,0,0,2.464-1.735,3.049,3.049,0,0,0,.213-1.735c-.091-.152-.335-.244-.7-.426"/></svg>